<svg version="1.1" xmlns="http://www.w3.org/2000/svg" viewBox="0 0 267.1249389384067 310.0394586093599" width="267.1249389384067" height="310.0394586093599">
  <!-- svg-source:excalidraw -->
  
  <defs>
    <style>
      @font-face {
        font-family: "Virgil";
        src: url("https://excalidraw.com/Virgil.woff2");
      }
      @font-face {
        font-family: "Cascadia";
        src: url("https://excalidraw.com/Cascadia.woff2");
      }
    </style>
  </defs>
  <g stroke-linecap="round" transform="translate(10.400308895257012 10) rotate(0 86.92220736428277 145.01972930467994)"><path d="M0 0 C43.8 0, 87.59 0, 173.84 0 M0 0 C38.25 0, 76.5 0, 173.84 0 M173.84 0 C173.84 82.78, 173.84 165.57, 173.84 290.04 M173.84 0 C173.84 115.13, 173.84 230.27, 173.84 290.04 M173.84 290.04 C118.55 290.04, 63.25 290.04, 0 290.04 M173.84 290.04 C106.49 290.04, 39.14 290.04, 0 290.04 M0 290.04 C0 214.56, 0 139.08, 0 0 M0 290.04 C0 186.99, 0 83.94, 0 0" stroke="#3b9ae4" stroke-width="2" fill="none"></path></g><g stroke-linecap="round" transform="translate(10 239.79147787606462) rotate(0 86.92220527795126 29.696488996948204)"><path d="M0 0 L173.84 0 L173.84 59.39 L0 59.39" stroke="none" stroke-width="0" fill="#82c3f7"></path><path d="M0 0 C63.37 0, 126.75 0, 173.84 0 M0 0 C57.94 0, 115.87 0, 173.84 0 M173.84 0 C173.84 17.33, 173.84 34.65, 173.84 59.39 M173.84 0 C173.84 21.87, 173.84 43.75, 173.84 59.39 M173.84 59.39 C128.63 59.39, 83.42 59.39, 0 59.39 M173.84 59.39 C129.66 59.39, 85.47 59.39, 0 59.39 M0 59.39 C0 35.95, 0 12.5, 0 0 M0 59.39 C0 38.13, 0 16.87, 0 0" stroke="#3b9ae4" stroke-width="2" fill="none"></path></g><g transform="translate(45.743592275856486 257.9003563819725) rotate(0 51.17861300209478 11.587610491040323)"><text x="0" y="18.175220982080653" font-family="Cascadia, Segoe UI Emoji" font-size="19.312684151733887px" fill="#ffffffff" text-anchor="start" style="white-space: pre;" direction="ltr">Global EC</text></g><g stroke-linecap="round" transform="translate(10 180.84818773089745) rotate(0 86.92220527795126 29.696488996948204)"><path d="M0 0 L173.84 0 L173.84 59.39 L0 59.39" stroke="none" stroke-width="0" fill="#82c3f7"></path><path d="M0 0 C48.14 0, 96.28 0, 173.84 0 M0 0 C41.96 0, 83.91 0, 173.84 0 M173.84 0 C173.84 14.68, 173.84 29.36, 173.84 59.39 M173.84 0 C173.84 19.48, 173.84 38.96, 173.84 59.39 M173.84 59.39 C106.65 59.39, 39.45 59.39, 0 59.39 M173.84 59.39 C112.7 59.39, 51.56 59.39, 0 59.39 M0 59.39 C0 35.72, 0 12.04, 0 0 M0 59.39 C0 36.54, 0 13.68, 0 0" stroke="#3b9ae4" stroke-width="2" fill="none"></path></g><g transform="translate(34.15598178481628 198.9570662368053) rotate(0 62.7662234931351 11.587610491040323)"><text x="62.7662234931351" y="18.175220982080653" font-family="Cascadia, Segoe UI Emoji" font-size="19.31268415173388px" fill="#ffffffff" text-anchor="middle" style="white-space: pre;" direction="ltr">Function EC</text></g><g stroke-linecap="round" transform="translate(10 121.62418269484914) rotate(0 86.92220527795126 29.696488996948204)"><path d="M0 0 L173.84 0 L173.84 59.39 L0 59.39" stroke="none" stroke-width="0" fill="#82c3f7"></path><path d="M0 0 C60.78 0, 121.55 0, 173.84 0 M0 0 C49.4 0, 98.79 0, 173.84 0 M173.84 0 C173.84 17.21, 173.84 34.43, 173.84 59.39 M173.84 0 C173.84 20.94, 173.84 41.87, 173.84 59.39 M173.84 59.39 C131.48 59.39, 89.11 59.39, 0 59.39 M173.84 59.39 C135.61 59.39, 97.37 59.39, 0 59.39 M0 59.39 C0 38.67, 0 17.95, 0 0 M0 59.39 C0 40.35, 0 21.31, 0 0" stroke="#3b9ae4" stroke-width="2" fill="none"></path></g><g transform="translate(34.15598178481628 139.73306120075688) rotate(0 62.7662234931351 11.587610491040323)"><text x="62.7662234931351" y="18.175220982080653" font-family="Cascadia, Segoe UI Emoji" font-size="19.31268415173388px" fill="#ffffffff" text-anchor="middle" style="white-space: pre;" direction="ltr">Function EC</text></g><g transform="translate(197.12493893840667 139.32067169179732) rotate(0 30 12)"><text x="30" y="19" font-family="Cascadia, Segoe UI Emoji" font-size="20px" fill="#3b9ae4" text-anchor="middle" style="white-space: pre;" direction="ltr">two()</text></g><g transform="translate(197.12493893840667 198.54467672784563) rotate(0 30 12)"><text x="30" y="19" font-family="Cascadia, Segoe UI Emoji" font-size="20px" fill="#3b9ae4" text-anchor="middle" style="white-space: pre;" direction="ltr">one()</text></g></svg>