<svg version="1.1" xmlns="http://www.w3.org/2000/svg" viewBox="0 0 923.7999420166016 167.25832104682922" width="923.7999420166016" height="167.25832104682922">
  <!-- svg-source:excalidraw -->
  
  <defs>
    <style>
      @font-face {
        font-family: "Virgil";
        src: url("https://excalidraw.com/Virgil.woff2");
      }
      @font-face {
        font-family: "Cascadia";
        src: url("https://excalidraw.com/Cascadia.woff2");
      }
    </style>
  </defs>
  <rect x="0" y="0" width="923.7999420166016" height="167.25832104682922" fill="#ffffff"></rect><g stroke-linecap="round" transform="translate(10 71.53864682745188) rotate(0 91 27.5)"><path d="M-1.48 -0.01 C50.38 -1.79, 101.8 -0.02, 182.6 -1.01 M0.76 -0.58 C45.6 0.51, 89.31 0.24, 181.68 -0.72 M183.63 1.83 C183.24 14.57, 181.07 29.67, 180.11 54.93 M181.91 -0.03 C182.49 13.44, 180.77 25.7, 182.18 55.91 M180.36 53.42 C145.38 52.63, 109.95 52.57, 1.73 54.24 M182.68 54.21 C140.83 55.84, 101.76 55.82, 0.43 55.92 M-1.34 54.85 C-0.68 37.18, 1.59 16.33, 0.73 -0.57 M-0.48 54.86 C-0.46 34.84, 1.09 15.39, 0.27 -0.49" stroke="#000000" stroke-width="1" fill="none"></path></g><g transform="translate(72.5 40.458319902420044) rotate(0 28.5 9.5)"><text x="28.5" y="15" font-family="Cascadia, Segoe UI Emoji" font-size="16px" fill="#000000" text-anchor="middle" style="white-space: pre;" direction="ltr">Step 1</text></g><g transform="translate(15 89.53864682745188) rotate(0 86 9.5)"><text x="86" y="14" font-family="Cascadia, Segoe UI Emoji" font-size="16px" fill="#000000" text-anchor="middle" style="white-space: pre;" direction="ltr">啟動 Spring Boot</text></g><g stroke-linecap="round"><g transform="translate(207.60000610351562 99.28336634881123) rotate(0 29.488089985214174 -0.2465465103105089)"><path d="M0.71 -1.19 C17.49 0.25, 29.66 -0.41, 58.82 0.67 M-0.03 -0.3 C22.17 -0.23, 42.34 -0.41, 59 0.7" stroke="#000000" stroke-width="1" fill="none"></path></g><g transform="translate(207.60000610351562 99.28336634881123) rotate(0 29.488089985214174 -0.2465465103105089)"><path d="M59.23 -0.44 L46.87 6.68 L44.36 -8.16 L60.87 1.74" stroke="none" stroke-width="0" fill="#000000" fill-rule="evenodd"></path><path d="M59.54 -0.2 C56.71 1.89, 50.49 2.8, 44.48 6.56 M58.98 0.47 C54.78 2.49, 49.05 4.27, 44.62 6.59 M44.63 7.56 C44.51 3.34, 46.16 -0.55, 44.74 -6.83 M45.5 5.84 C45.87 3.05, 45.17 -1.32, 45.68 -5.87 M46.65 -5.85 C49.67 -4.73, 56.92 -2.15, 58.8 1.97 M45.5 -6.37 C50.67 -3.31, 54.89 -1.03, 59.02 1.29 M59 0.7 C59 0.7, 59 0.7, 59 0.7 M59 0.7 C59 0.7, 59 0.7, 59 0.7" stroke="#000000" stroke-width="1" fill="none"></path></g></g><g transform="translate(282.1000061035156 77.53864682745188) rotate(0 60.5 21.5)"><text x="60.5" y="17.5" font-family="Cascadia, Segoe UI Emoji" font-size="16px" fill="#000000" text-anchor="middle" style="white-space: pre;" direction="ltr">Spring 檢查</text><text x="60.5" y="39" font-family="Cascadia, Segoe UI Emoji" font-size="16px" fill="#000000" text-anchor="middle" style="white-space: pre;" direction="ltr">Class 上的註解</text></g><g stroke-linecap="round"><g transform="translate(420.84813676108126 146.8593961931765) rotate(0 0.8911053166515899 -47.61569685395807)"><path d="M1.64 1.35 C0.19 -32.93, -0.86 -66.81, 0.31 -96.58 M-0.32 0.75 C-0.22 -30.93, -0.09 -59.27, 2.1 -96.26" stroke="#000000" stroke-width="1" fill="none"></path></g></g><g stroke-linecap="round"><g transform="translate(422.7999572753906 51.02236218444526) rotate(0 5.5331894981874825 0.27762155540764866)"><path d="M-0.28 -0.28 C4.53 0.62, 7.91 -0.07, 11.34 -0.13 M-0.01 0.06 C3.98 -0.24, 7.73 0.52, 10.92 0.83" stroke="#000000" stroke-width="1" fill="none"></path></g></g><g stroke-linecap="round"><g transform="translate(422.0000305175781 99.47027480309134) rotate(0 6.4001779581341225 -0.43162797563942945)"><path d="M0.36 -1.14 C5.08 -0.11, 8.65 0.05, 12.93 -0.13 M-0.13 -0.02 C2.31 0.47, 5.3 -0.4, 12.58 0.28" stroke="#000000" stroke-width="1" fill="none"></path></g></g><g stroke-linecap="round"><g transform="translate(422.0000305175781 146.4217717367443) rotate(0 6.794539629129247 -0.16345068991503808)"><path d="M0.14 -0.14 C2.57 -0.86, 7.54 -0.27, 13.55 -0.62 M-0.24 0.3 C5.64 0.08, 10.55 0.54, 13.83 0.05" stroke="#000000" stroke-width="1" fill="none"></path></g></g><g transform="translate(442.75 40.299983739852905) rotate(0 81 11)"><text x="81" y="18" font-family="Cascadia, Segoe UI Emoji" font-size="16px" fill="#000000" text-anchor="middle" style="white-space: pre;" direction="ltr">有 @Component 註解</text></g><g transform="translate(442.75 88.03864682745188) rotate(0 99.5 11)"><text x="99.5" y="18" font-family="Cascadia, Segoe UI Emoji" font-size="16px" fill="#000000" text-anchor="middle" style="white-space: pre;" direction="ltr">有 @Configuration 註解</text></g><g transform="translate(442.75 135.25832104682922) rotate(0 48.5 11)"><text x="48.5" y="18" font-family="Cascadia, Segoe UI Emoji" font-size="16px" fill="#000000" text-anchor="middle" style="white-space: pre;" direction="ltr">沒有任何註解</text></g><g stroke-linecap="round"><g transform="translate(655.7499694824219 100.28958135337501) rotate(0 29.607366075273603 0.2214097887315063)"><path d="M-0.49 -1.02 C16.41 -1.5, 27.35 1.27, 59.3 1.52 M-0.57 -0.65 C17.1 1.22, 35.56 0.45, 59.78 1.24" stroke="#000000" stroke-width="1" fill="none"></path></g><g transform="translate(655.7499694824219 100.28958135337501) rotate(0 29.607366075273603 0.2214097887315063)"><path d="M60.9 0.25 L47.65 6.81 L47.67 -6.38 L60.66 3.06" stroke="none" stroke-width="0" fill="#000000" fill-rule="evenodd"></path><path d="M59.41 0.47 C57.82 1.42, 51.74 4.8, 46.18 7.68 M59.36 0.75 C54.93 3.23, 51.13 4.27, 46.54 7.47 M45.8 6.45 C47.09 5.13, 46.26 0.72, 47.12 -4.38 M46.28 7.43 C45.71 2.13, 45.94 -2.61, 46.03 -5.01 M45.78 -5 C48.8 -4.54, 51.97 -3.54, 59.42 0.85 M45.79 -4.83 C50.11 -2.89, 52.6 -1.33, 59.33 1.88 M59.78 1.24 C59.78 1.24, 59.78 1.24, 59.78 1.24 M59.78 1.24 C59.78 1.24, 59.78 1.24, 59.78 1.24" stroke="#000000" stroke-width="1" fill="none"></path></g></g><g transform="translate(433.4250030517578 10) rotate(0 28.5 9.5)"><text x="28.5" y="15" font-family="Cascadia, Segoe UI Emoji" font-size="16px" fill="#000000" text-anchor="middle" style="white-space: pre;" direction="ltr">Step 2</text></g><g stroke-linecap="round" transform="translate(731.7999420166016 72.74017566954717) rotate(0 91 27.5)"><path d="M1.53 -1.12 C65.23 -0.82, 135.31 -0.75, 180.17 -0.2 M0.57 0.73 C43.1 -1.65, 84.12 -2.19, 182.69 0.93 M182.49 -1.26 C182.19 20.33, 182.98 45.75, 183.18 55.53 M182.41 -0.72 C180.78 19.34, 182.3 38.35, 181.46 55.82 M184 56.29 C114.22 54.95, 44.44 57.75, -1.05 55.67 M182.02 54.75 C127.89 54.17, 74.24 54.9, -0.76 54.43 M1.81 54.15 C-1.23 41.3, 0.77 28.95, 1.3 1.5 M-0.61 55.16 C-1.07 33.89, -0.52 12.81, -0.32 -1" stroke="#000000" stroke-width="1" fill="none"></path></g><g transform="translate(793.0998687744141 39.65984874451533) rotate(0 28.5 9.5)"><text x="28.5" y="15" font-family="Cascadia, Segoe UI Emoji" font-size="16px" fill="#000000" text-anchor="middle" style="white-space: pre;" direction="ltr">Step 3</text></g><g transform="translate(736.7999420166016 90.74017566954717) rotate(0 86 9.5)"><text x="86" y="14" font-family="Cascadia, Segoe UI Emoji" font-size="16px" fill="#000000" text-anchor="middle" style="white-space: pre;" direction="ltr">啟動 Spring Boot</text></g></svg>