<svg version="1.1" xmlns="http://www.w3.org/2000/svg" viewBox="0 0 852.2499542236328 167.25832104682922" width="852.2499542236328" height="167.25832104682922">
  <!-- svg-source:excalidraw -->
  
  <defs>
    <style>
      @font-face {
        font-family: "Virgil";
        src: url("https://excalidraw.com/Virgil.woff2");
      }
      @font-face {
        font-family: "Cascadia";
        src: url("https://excalidraw.com/Cascadia.woff2");
      }
    </style>
  </defs>
  <rect x="0" y="0" width="852.2499542236328" height="167.25832104682922" fill="#ffffff"></rect><g stroke-linecap="round" transform="translate(10 71.53864682745188) rotate(0 91 27.5)"><path d="M-1.48 -0.01 C50.38 -1.79, 101.8 -0.02, 182.6 -1.01 M0.76 -0.58 C45.6 0.51, 89.31 0.24, 181.68 -0.72 M183.63 1.83 C183.24 14.57, 181.07 29.67, 180.11 54.93 M181.91 -0.03 C182.49 13.44, 180.77 25.7, 182.18 55.91 M180.36 53.42 C145.38 52.63, 109.95 52.57, 1.73 54.24 M182.68 54.21 C140.83 55.84, 101.76 55.82, 0.43 55.92 M-1.34 54.85 C-0.68 37.18, 1.59 16.33, 0.73 -0.57 M-0.48 54.86 C-0.46 34.84, 1.09 15.39, 0.27 -0.49" stroke="#000000" stroke-width="1" fill="none"></path></g><g transform="translate(72.5 40.458319902420044) rotate(0 28.5 9.5)"><text x="28.5" y="15" font-family="Cascadia, Segoe UI Emoji" font-size="16px" fill="#000000" text-anchor="middle" style="white-space: pre;" direction="ltr">Step 1</text></g><g transform="translate(15 89.53864682745188) rotate(0 86 9.5)"><text x="86" y="14" font-family="Cascadia, Segoe UI Emoji" font-size="16px" fill="#000000" text-anchor="middle" style="white-space: pre;" direction="ltr">啟動 Spring Boot</text></g><g stroke-linecap="round"><g transform="translate(207.60000610351562 99.28336634881123) rotate(0 29.488089985214174 -0.2465465103105089)"><path d="M0.71 -1.19 C17.49 0.25, 29.66 -0.41, 58.82 0.67 M-0.03 -0.3 C22.17 -0.23, 42.34 -0.41, 59 0.7" stroke="#000000" stroke-width="1" fill="none"></path></g><g transform="translate(207.60000610351562 99.28336634881123) rotate(0 29.488089985214174 -0.2465465103105089)"><path d="M59.23 -0.44 L46.87 6.68 L44.36 -8.16 L60.87 1.74" stroke="none" stroke-width="0" fill="#000000" fill-rule="evenodd"></path><path d="M59.54 -0.2 C56.71 1.89, 50.49 2.8, 44.48 6.56 M58.98 0.47 C54.78 2.49, 49.05 4.27, 44.62 6.59 M44.63 7.56 C44.51 3.34, 46.16 -0.55, 44.74 -6.83 M45.5 5.84 C45.87 3.05, 45.17 -1.32, 45.68 -5.87 M46.65 -5.85 C49.67 -4.73, 56.92 -2.15, 58.8 1.97 M45.5 -6.37 C50.67 -3.31, 54.89 -1.03, 59.02 1.29 M59 0.7 C59 0.7, 59 0.7, 59 0.7 M59 0.7 C59 0.7, 59 0.7, 59 0.7" stroke="#000000" stroke-width="1" fill="none"></path></g></g><g transform="translate(282.1000061035156 77.53864682745188) rotate(0 60.5 21.5)"><text x="60.5" y="17.5" font-family="Cascadia, Segoe UI Emoji" font-size="16px" fill="#000000" text-anchor="middle" style="white-space: pre;" direction="ltr">Spring 檢查</text><text x="60.5" y="39" font-family="Cascadia, Segoe UI Emoji" font-size="16px" fill="#000000" text-anchor="middle" style="white-space: pre;" direction="ltr">Class 上的註解</text></g><g stroke-linecap="round"><g transform="translate(420.84813676108126 146.8593961931765) rotate(0 0.8911053166515899 -47.61569685395807)"><path d="M1.64 1.35 C0.19 -32.93, -0.86 -66.81, 0.31 -96.58 M-0.32 0.75 C-0.22 -30.93, -0.09 -59.27, 2.1 -96.26" stroke="#000000" stroke-width="1" fill="none"></path></g></g><g stroke-linecap="round"><g transform="translate(422.7999572753906 51.02236218444526) rotate(0 5.5331894981874825 0.27762155540764866)"><path d="M-0.28 -0.28 C4.53 0.62, 7.91 -0.07, 11.34 -0.13 M-0.01 0.06 C3.98 -0.24, 7.73 0.52, 10.92 0.83" stroke="#000000" stroke-width="1" fill="none"></path></g></g><g stroke-linecap="round"><g transform="translate(422.0000305175781 99.47027480309134) rotate(0 6.4001779581341225 -0.43162797563942945)"><path d="M0.36 -1.14 C5.08 -0.11, 8.65 0.05, 12.93 -0.13 M-0.13 -0.02 C2.31 0.47, 5.3 -0.4, 12.58 0.28" stroke="#000000" stroke-width="1" fill="none"></path></g></g><g stroke-linecap="round"><g transform="translate(422.0000305175781 146.4217717367443) rotate(0 6.794539629129247 -0.16345068991503808)"><path d="M0.14 -0.14 C2.57 -0.86, 7.54 -0.27, 13.55 -0.62 M-0.24 0.3 C5.64 0.08, 10.55 0.54, 13.83 0.05" stroke="#000000" stroke-width="1" fill="none"></path></g></g><g transform="translate(442.75 40.299983739852905) rotate(0 81 11)"><text x="81" y="18" font-family="Cascadia, Segoe UI Emoji" font-size="16px" fill="#000000" text-anchor="middle" style="white-space: pre;" direction="ltr">有 @Component 註解</text></g><g transform="translate(442.75 88.03864682745188) rotate(0 99.5 11)"><text x="99.5" y="18" font-family="Cascadia, Segoe UI Emoji" font-size="16px" fill="#000000" text-anchor="middle" style="white-space: pre;" direction="ltr">有 @Configuration 註解</text></g><g transform="translate(442.75 135.25832104682922) rotate(0 48.5 11)"><text x="48.5" y="18" font-family="Cascadia, Segoe UI Emoji" font-size="16px" fill="#000000" text-anchor="middle" style="white-space: pre;" direction="ltr">沒有任何註解</text></g><g stroke-linecap="round"><g transform="translate(655.7499694824219 100.2791522933801) rotate(0 31.007390489336103 0.2374629092192322)"><path d="M-0.49 -1.02 C17.1 -1.49, 28.72 1.29, 62.1 1.55 M-0.57 -0.65 C17.95 1.25, 37.26 0.5, 62.58 1.27" stroke="#000000" stroke-width="1" fill="none"></path></g><g transform="translate(655.7499694824219 100.2791522933801) rotate(0 31.007390489336103 0.2374629092192322)"><path d="M63.7 0.28 L50.46 6.85 L50.47 -6.33 L63.46 3.09" stroke="none" stroke-width="0" fill="#000000" fill-rule="evenodd"></path><path d="M62.21 0.5 C60.62 1.45, 54.54 4.84, 48.99 7.73 M62.16 0.78 C57.73 3.26, 53.94 4.3, 49.35 7.52 M48.61 6.5 C49.89 5.17, 49.06 0.76, 49.91 -4.33 M49.09 7.48 C48.51 2.18, 48.73 -2.56, 48.82 -4.97 M48.57 -4.95 C51.59 -4.5, 54.77 -3.5, 62.22 0.88 M48.58 -4.79 C52.9 -2.85, 55.4 -1.29, 62.13 1.91 M62.58 1.27 C62.58 1.27, 62.58 1.27, 62.58 1.27 M62.58 1.27 C62.58 1.27, 62.58 1.27, 62.58 1.27" stroke="#000000" stroke-width="1" fill="none"></path></g></g><g transform="translate(433.4250030517578 10) rotate(0 28.5 9.5)"><text x="28.5" y="15" font-family="Cascadia, Segoe UI Emoji" font-size="16px" fill="#000000" text-anchor="middle" style="white-space: pre;" direction="ltr">Step 2</text></g><g stroke-linecap="round" transform="translate(733.2499542236328 72.74017566954717) rotate(0 54.5 27.5)"><path d="M1.53 -1.12 C38.29 -1.16, 81.44 -1.09, 107.17 -0.2 M0.57 0.73 C26.11 -1.16, 50.14 -1.7, 109.69 0.93 M109.49 -1.26 C109.19 20.33, 109.98 45.75, 110.18 55.53 M109.41 -0.72 C107.78 19.34, 109.3 38.35, 108.46 55.82 M111 56.29 C68.68 54.6, 26.36 57.39, -1.05 55.67 M109.02 54.75 C76.52 54.55, 44.51 55.28, -0.76 54.43 M1.81 54.15 C-1.23 41.3, 0.77 28.95, 1.3 1.5 M-0.61 55.16 C-1.07 33.89, -0.52 12.81, -0.32 -1" stroke="#000000" stroke-width="1" fill="none"></path></g><g transform="translate(759.2499542236328 39.65984874451533) rotate(0 28.5 9.5)"><text x="28.5" y="15" font-family="Cascadia, Segoe UI Emoji" font-size="16px" fill="#000000" text-anchor="middle" style="white-space: pre;" direction="ltr">Step 3</text></g><g transform="translate(738.2499542236328 90.74017566954717) rotate(0 49.5 9.5)"><text x="49.5" y="14" font-family="Cascadia, Segoe UI Emoji" font-size="16px" fill="#000000" text-anchor="middle" style="white-space: pre;" direction="ltr">運行成功</text></g></svg>