<svg version="1.1" xmlns="http://www.w3.org/2000/svg" viewBox="0 0 690.6999206542969 163.9416606426239" width="690.6999206542969" height="163.9416606426239">
  <!-- svg-source:excalidraw -->
  
  <defs>
    <style>
      @font-face {
        font-family: "Virgil";
        src: url("https://excalidraw.com/Virgil.woff2");
      }
      @font-face {
        font-family: "Cascadia";
        src: url("https://excalidraw.com/Cascadia.woff2");
      }
    </style>
  </defs>
  <rect x="0" y="0" width="690.6999206542969" height="163.9416606426239" fill="#ffffff"></rect><g stroke-linecap="round" transform="translate(95.5 39.44999694824219) rotate(0 84 32.5)"><path d="M168 32.5 C168 33.81, 167.79 35.12, 167.39 36.42 C166.98 37.71, 166.37 39.01, 165.56 40.28 C164.75 41.55, 163.74 42.8, 162.54 44.02 C161.34 45.25, 159.95 46.45, 158.38 47.6 C156.81 48.76, 155.05 49.89, 153.13 50.96 C151.21 52.04, 149.11 53.07, 146.87 54.05 C144.64 55.03, 142.23 55.96, 139.7 56.83 C137.18 57.69, 134.5 58.51, 131.72 59.25 C128.94 59.99, 126.03 60.67, 123.04 61.28 C120.05 61.88, 116.94 62.42, 113.79 62.89 C110.63 63.35, 107.38 63.74, 104.1 64.06 C100.83 64.37, 97.48 64.61, 94.13 64.76 C90.77 64.92, 87.38 65, 84 65 C80.62 65, 77.23 64.92, 73.87 64.76 C70.52 64.61, 67.17 64.37, 63.9 64.06 C60.62 63.74, 57.37 63.35, 54.21 62.89 C51.06 62.42, 47.95 61.88, 44.96 61.28 C41.97 60.67, 39.06 59.99, 36.28 59.25 C33.5 58.51, 30.82 57.69, 28.3 56.83 C25.77 55.96, 23.36 55.03, 21.13 54.05 C18.89 53.07, 16.79 52.04, 14.87 50.96 C12.95 49.89, 11.19 48.76, 9.62 47.6 C8.05 46.45, 6.66 45.25, 5.46 44.02 C4.26 42.8, 3.25 41.55, 2.44 40.28 C1.63 39.01, 1.02 37.71, 0.61 36.42 C0.21 35.12, 0 33.81, 0 32.5 C0 31.19, 0.21 29.88, 0.61 28.58 C1.02 27.29, 1.63 25.99, 2.44 24.72 C3.25 23.45, 4.26 22.2, 5.46 20.98 C6.66 19.75, 8.05 18.55, 9.62 17.4 C11.19 16.24, 12.95 15.11, 14.87 14.04 C16.79 12.96, 18.89 11.93, 21.13 10.95 C23.36 9.97, 25.77 9.04, 28.3 8.17 C30.82 7.31, 33.5 6.49, 36.28 5.75 C39.06 5.01, 41.97 4.33, 44.96 3.72 C47.95 3.12, 51.06 2.58, 54.21 2.11 C57.37 1.65, 60.62 1.26, 63.9 0.94 C67.17 0.63, 70.52 0.39, 73.87 0.24 C77.23 0.08, 80.62 0, 84 0 C87.38 0, 90.77 0.08, 94.13 0.24 C97.48 0.39, 100.83 0.63, 104.1 0.94 C107.38 1.26, 110.63 1.65, 113.79 2.11 C116.94 2.58, 120.05 3.12, 123.04 3.72 C126.03 4.33, 128.94 5.01, 131.72 5.75 C134.5 6.49, 137.18 7.31, 139.7 8.17 C142.23 9.04, 144.64 9.97, 146.87 10.95 C149.11 11.93, 151.21 12.96, 153.13 14.04 C155.05 15.11, 156.81 16.24, 158.38 17.4 C159.95 18.55, 161.34 19.75, 162.54 20.98 C163.74 22.2, 164.75 23.45, 165.56 24.72 C166.37 25.99, 166.98 27.29, 167.39 28.58 C167.79 29.88, 168 31.19, 168 32.5" stroke="#000000" stroke-width="1" fill="none"></path></g><g transform="translate(100.5 62.44999694824219) rotate(0 79 9.5)"><text x="79" y="14" font-family="Cascadia, Segoe UI Emoji" font-size="16px" fill="#000000" text-anchor="middle" style="white-space: pre;" direction="ltr">Bean hpPrinter</text></g><g stroke-linecap="round" transform="translate(457.6999206542969 39.44999694824219) rotate(0 72.5 32.5)"><path d="M145 32.5 C145 33.91, 144.79 35.34, 144.38 36.74 C143.97 38.14, 143.35 39.55, 142.53 40.91 C141.71 42.28, 140.69 43.63, 139.48 44.94 C138.27 46.24, 136.86 47.53, 135.29 48.75 C133.71 49.97, 131.94 51.16, 130.02 52.28 C128.1 53.41, 126 54.48, 123.77 55.48 C121.53 56.48, 119.14 57.42, 116.64 58.28 C114.13 59.14, 111.48 59.94, 108.75 60.65 C106.02 61.35, 103.16 61.98, 100.24 62.53 C97.33 63.07, 94.31 63.53, 91.26 63.89 C88.22 64.26, 85.09 64.54, 81.96 64.72 C78.84 64.91, 75.65 65, 72.5 65 C69.35 65, 66.16 64.91, 63.04 64.72 C59.91 64.54, 56.78 64.26, 53.74 63.89 C50.69 63.53, 47.67 63.07, 44.76 62.53 C41.84 61.98, 38.98 61.35, 36.25 60.65 C33.52 59.94, 30.87 59.14, 28.36 58.28 C25.86 57.42, 23.47 56.48, 21.23 55.48 C19 54.48, 16.9 53.41, 14.98 52.28 C13.06 51.16, 11.29 49.97, 9.71 48.75 C8.14 47.53, 6.73 46.24, 5.52 44.94 C4.31 43.63, 3.29 42.28, 2.47 40.91 C1.65 39.55, 1.03 38.14, 0.62 36.74 C0.21 35.34, 0 33.91, 0 32.5 C0 31.09, 0.21 29.66, 0.62 28.26 C1.03 26.86, 1.65 25.45, 2.47 24.09 C3.29 22.72, 4.31 21.37, 5.52 20.06 C6.73 18.76, 8.14 17.47, 9.71 16.25 C11.29 15.03, 13.06 13.84, 14.98 12.72 C16.9 11.59, 19 10.52, 21.23 9.52 C23.47 8.52, 25.86 7.58, 28.36 6.72 C30.87 5.86, 33.52 5.06, 36.25 4.35 C38.98 3.65, 41.84 3.02, 44.76 2.47 C47.67 1.93, 50.69 1.47, 53.74 1.11 C56.78 0.74, 59.91 0.46, 63.04 0.28 C66.16 0.09, 69.35 0, 72.5 0 C75.65 0, 78.84 0.09, 81.96 0.28 C85.09 0.46, 88.22 0.74, 91.26 1.11 C94.31 1.47, 97.33 1.93, 100.24 2.47 C103.16 3.02, 106.02 3.65, 108.75 4.35 C111.48 5.06, 114.13 5.86, 116.64 6.72 C119.14 7.58, 121.53 8.52, 123.77 9.52 C126 10.52, 128.1 11.59, 130.02 12.72 C131.94 13.84, 133.71 15.03, 135.29 16.25 C136.86 17.47, 138.27 18.76, 139.48 20.06 C140.69 21.37, 141.71 22.72, 142.53 24.09 C143.35 25.45, 143.97 26.86, 144.38 28.26 C144.79 29.66, 144.9 31.79, 145 32.5 C145.1 33.21, 145.1 31.79, 145 32.5" stroke="#000000" stroke-width="1" fill="none"></path></g><g transform="translate(462.6999206542969 62.44999694824219) rotate(0 67.5 9.5)"><text x="67.5" y="14" font-family="Cascadia, Segoe UI Emoji" font-size="16px" fill="#000000" text-anchor="middle" style="white-space: pre;" direction="ltr">Bean teacher</text></g><g transform="translate(10 10) rotate(0 169.5 9.5)"><text x="0" y="15" font-family="Cascadia, Segoe UI Emoji" font-size="16px" fill="#000000" text-anchor="start" style="white-space: pre;" direction="ltr">Printer hpPrinter = new HpPrinter();</text></g><g stroke-linecap="round"><g transform="translate(288.96528816495027 70.10000610351562) rotate(0 72.63465690340911 0.10789933920779049)"><path d="M-1.56 0 C31.86 1.46, 66.76 0.59, 146.49 0.84 M0.8 0.09 C31.31 -0.78, 60.65 -0.86, 146.83 -0.31" stroke="#000000" stroke-width="1" fill="none"></path></g><g transform="translate(288.96528816495027 70.10000610351562) rotate(0 72.63465690340911 0.10789933920779049)"><path d="M148.38 1.11 L133.59 5.75 L133.19 -7.54 L148.04 0.72" stroke="none" stroke-width="0" fill="#000000" fill-rule="evenodd"></path><path d="M145.66 -0.31 C142.79 1.08, 141.04 1.86, 132.33 6.72 M147.43 -0.25 C144.75 1.27, 141.13 2.52, 132.59 5.85 M132.86 5.4 C133.39 0.03, 134.02 -3.47, 134.21 -6.53 M133.28 5.95 C133.31 2.4, 133.84 -1.49, 133.07 -6.69 M134.29 -7.37 C137.8 -4.26, 142.43 -3.38, 147.12 -0.03 M132.87 -5.99 C136.58 -5.23, 140.84 -2.9, 146.61 -0.17 M146.83 -0.31 C146.83 -0.31, 146.83 -0.31, 146.83 -0.31 M146.83 -0.31 C146.83 -0.31, 146.83 -0.31, 146.83 -0.31" stroke="#000000" stroke-width="1" fill="none"></path></g></g><g transform="translate(379.6999206542969 10) rotate(0 150.5 9.5)"><text x="0" y="15" font-family="Cascadia, Segoe UI Emoji" font-size="16px" fill="#000000" text-anchor="start" style="white-space: pre;" direction="ltr">Teacher teacher = new Teacher();</text></g><g transform="translate(242.09994506835938 103.40000915527344) rotate(0 119.5 11)"><text x="119.5" y="18" font-family="Cascadia, Segoe UI Emoji" font-size="16px" fill="#c92a2a" text-anchor="middle" style="white-space: pre;" direction="ltr">Dependency Injection（DI）</text></g><g transform="translate(329.0999450683594 131.9416606426239) rotate(0 32.5 11)"><text x="32.5" y="18" font-family="Cascadia, Segoe UI Emoji" font-size="16px" fill="#c92a2a" text-anchor="middle" style="white-space: pre;" direction="ltr">依賴注入</text></g></svg>